<svg width="24" height="25" viewBox="0 0 24 25" fill="none" xmlns="http://www.w3.org/2000/svg">
<g id="bag-suitcase-2--product-business-briefcase">
<path id="Vector" d="M21.4286 6.48953H2.57146C1.62469 6.48953 0.857178 7.25705 0.857178 8.20382V21.9181C0.857178 22.8649 1.62469 23.6324 2.57146 23.6324H21.4286C22.3754 23.6324 23.1429 22.8649 23.1429 21.9181V8.20382C23.1429 7.25705 22.3754 6.48953 21.4286 6.48953Z" stroke="#0315BD" stroke-width="1.5" stroke-linecap="round" stroke-linejoin="round"/>
<path id="Vector_2" d="M17.1429 6.48954V3.06097C17.1429 2.6063 16.9623 2.17027 16.6408 1.84878C16.3193 1.52729 15.8833 1.34668 15.4286 1.34668H8.57146C8.1168 1.34668 7.68077 1.52729 7.35927 1.84878C7.03779 2.17027 6.85718 2.6063 6.85718 3.06097V6.48954" stroke="#2A2A2C" stroke-width="1.5" stroke-linecap="round" stroke-linejoin="round"/>
</g>
</svg>
