<svg width="24" height="25" viewBox="0 0 24 25" fill="none" xmlns="http://www.w3.org/2000/svg">
<g id="vuesax/linear/category">
<g id="category">
<path id="Vector" d="M5 10.4895H7C9 10.4895 10 9.48953 10 7.48953V5.48953C10 3.48953 9 2.48953 7 2.48953H5C3 2.48953 2 3.48953 2 5.48953V7.48953C2 9.48953 3 10.4895 5 10.4895Z" stroke="#2A2A2C" stroke-width="1.5" stroke-miterlimit="10" stroke-linecap="round" stroke-linejoin="round"/>
<path id="Vector_2" d="M17 10.4895H19C21 10.4895 22 9.48953 22 7.48953V5.48953C22 3.48953 21 2.48953 19 2.48953H17C15 2.48953 14 3.48953 14 5.48953V7.48953C14 9.48953 15 10.4895 17 10.4895Z" stroke="#2A2A2C" stroke-width="1.5" stroke-miterlimit="10" stroke-linecap="round" stroke-linejoin="round"/>
<path id="Vector_3" d="M17 22.4895H19C21 22.4895 22 21.4895 22 19.4895V17.4895C22 15.4895 21 14.4895 19 14.4895H17C15 14.4895 14 15.4895 14 17.4895V19.4895C14 21.4895 15 22.4895 17 22.4895Z" stroke="#2A2A2C" stroke-width="1.5" stroke-miterlimit="10" stroke-linecap="round" stroke-linejoin="round"/>
<path id="Vector_4" d="M5 22.4895H7C9 22.4895 10 21.4895 10 19.4895V17.4895C10 15.4895 9 14.4895 7 14.4895H5C3 14.4895 2 15.4895 2 17.4895V19.4895C2 21.4895 3 22.4895 5 22.4895Z" stroke="#2A2A2C" stroke-width="1.5" stroke-miterlimit="10" stroke-linecap="round" stroke-linejoin="round"/>
</g>
</g>
</svg>
