<svg width="48" height="43" viewBox="0 0 48 43" fill="none" xmlns="http://www.w3.org/2000/svg">
<g id="Frame 1000011614">
<path id="Ellipse 1179" d="M12.4391 42.9895C5.9013 42.9895 0.601318 37.3758 0.601318 30.4509C0.601318 27.6277 1.48226 25.0223 2.96888 22.9265C4.05271 21.3986 8.95881 16.047 13.8244 10.8852C14.9768 9.66259 16.127 8.45067 17.2235 7.30271C17.5369 6.97471 17.8458 6.65193 18.1492 6.33561C18.6789 5.78324 19.1493 5.29468 19.6811 4.74426C20.0343 4.37871 20.4406 3.9599 20.7953 3.59571C22.6036 1.73877 23.95 0.395417 24.4162 0V11.7119L20.0989 16.2589L12.4391 23.8371C12.4391 23.8371 10.319 25.723 9.51451 27.2818C9.12342 28.0395 8.96482 28.5103 8.81816 29.3486C8.65121 30.303 8.59532 30.8857 8.81816 31.8288C8.97911 32.5099 9.08582 32.926 9.51451 33.4822C10.0359 34.1588 10.5224 34.4168 11.325 34.7223C12.1435 35.0339 12.6778 35.0484 13.5533 34.9979C14.4488 34.9463 14.9311 34.7288 15.7816 34.4467C17.7901 33.7807 20.5167 31.8288 20.5167 31.8288L26.5053 27.5574C25.9482 29.3486 23.7537 35.2771 22.4019 37.3403C20.1879 40.7192 16.4984 42.9895 12.4391 42.9895Z" fill="#0315BD"/>
<path id="Ellipse 1180" d="M36.1624 42.9895C42.7003 42.9895 48.0002 37.3758 48.0002 30.4509C48.0002 27.6277 47.1193 25.0223 45.6327 22.9265C44.5489 21.3986 39.6428 16.047 34.7772 10.8852C33.6247 9.66259 32.4746 8.45067 31.378 7.30271C31.0647 6.97471 30.7558 6.65193 30.4524 6.33561C29.9226 5.78324 29.4523 5.29468 28.9205 4.74426C28.5672 4.37871 28.161 3.9599 27.8063 3.59571C25.9979 1.73877 24.6516 0.395417 24.1853 0V11.7119L28.5026 16.2589L36.1624 23.8371C36.1624 23.8371 38.2825 25.723 39.0871 27.2818C39.4781 28.0395 39.6367 28.5103 39.7834 29.3486C39.9504 30.303 40.0062 30.8857 39.7834 31.8288C39.6225 32.5099 39.5157 32.926 39.0871 33.4822C39.0871 33.4822 38.547 34.3139 38.0796 34.7223C37.1799 35.5085 36.5462 35.8747 35.4616 36.3758C34.5491 36.7974 33.9651 36.8573 32.9815 37.0647C30.3878 37.6115 26.1997 37.3403 26.1997 37.3403C28.4137 40.7192 32.1031 42.9895 36.1624 42.9895Z" fill="#0315BD"/>
</g>
</svg>
