<svg width="24" height="25" viewBox="0 0 24 25" fill="none" xmlns="http://www.w3.org/2000/svg">
<g id="login-1--arrow-enter-frame-left-login-point-rectangle">
<path id="Vector" d="M16.2858 18.4895V21.9181C16.2858 22.3727 16.1051 22.8088 15.7837 23.1303C15.4622 23.4517 15.0261 23.6324 14.5715 23.6324H2.57146C2.1168 23.6324 1.68077 23.4517 1.35928 23.1303C1.03779 22.8088 0.857178 22.3727 0.857178 21.9181V3.06097C0.857178 2.6063 1.03779 2.17027 1.35928 1.84878C1.68077 1.52729 2.1168 1.34668 2.57146 1.34668H14.5715C15.0261 1.34668 15.4622 1.52729 15.7837 1.84878C16.1051 2.17027 16.2858 2.6063 16.2858 3.06097V6.48954" stroke="#FF0101" stroke-width="1.5" stroke-linecap="round" stroke-linejoin="round"/>
<path id="Vector_2" d="M23.143 12.4895H9.42871" stroke="#FF0101" stroke-width="1.5" stroke-linecap="round" stroke-linejoin="round"/>
<path id="Vector_3" d="M12.8573 9.06097L9.42871 12.4895L12.8573 15.9181" stroke="#FF0101" stroke-width="1.5" stroke-linecap="round" stroke-linejoin="round"/>
</g>
</svg>
