<svg width="23" height="24" viewBox="0 0 23 24" fill="none" xmlns="http://www.w3.org/2000/svg">
<g id="notification-alarm-2--android-phone-mobile-device-smartphone-iphone-alert-bell-alarm">
<path id="Vector" d="M18.4285 9.42858C20.7954 9.42858 22.7142 7.50979 22.7142 5.14286C22.7142 2.77593 20.7954 0.857147 18.4285 0.857147C16.0616 0.857147 14.1428 2.77593 14.1428 5.14286C14.1428 7.50979 16.0616 9.42858 18.4285 9.42858Z" fill="#F3012D"/>
<path id="Vector_2" d="M17.0274 13.7143V16.3433C17.0274 17.0138 17.2937 17.6568 17.7679 18.131C18.2419 18.605 19.0439 18.8714 19.7143 18.8714H0.857178C1.52768 18.8714 2.32954 18.605 2.80366 18.131C3.27777 17.6568 3.54413 17.0138 3.54413 16.3433L3.54411 10.1702C3.54411 8.38224 4.25439 6.66747 5.5187 5.40317C6.783 4.13887 8.49777 3.42859 10.2857 3.42859" stroke="black" stroke-linecap="round" stroke-linejoin="round"/>
<path id="Vector_3" d="M8.57153 23.1429H12.0001" stroke="black" stroke-linecap="round" stroke-linejoin="round"/>
</g>
</svg>
