<svg width="22" height="25" viewBox="0 0 22 25" fill="none" xmlns="http://www.w3.org/2000/svg">
<g id="cog--work-loading-cog-gear-settings-machine">
<path id="Vector" d="M7.96575 4.34668L8.70289 2.44382C8.82721 2.12165 9.04594 1.84453 9.33041 1.64876C9.61489 1.45299 9.95185 1.3477 10.2972 1.34668H11.7029C12.0482 1.3477 12.3852 1.45299 12.6697 1.64876C12.9541 1.84453 13.1729 2.12165 13.2972 2.44382L14.0343 4.34668L16.5371 5.78668L18.56 5.47811C18.8968 5.43239 19.2397 5.48783 19.545 5.6374C19.8501 5.78697 20.104 6.0239 20.2743 6.31811L20.96 7.51811C21.1357 7.81699 21.2168 8.16213 21.1923 8.50797C21.1677 8.85381 21.039 9.1841 20.8228 9.45525L19.5714 11.0495V13.9295L20.8571 15.5238C21.0733 15.795 21.202 16.1253 21.2265 16.4711C21.2511 16.8169 21.17 17.1621 20.9943 17.461L20.3085 18.661C20.1383 18.9551 19.8844 19.192 19.5793 19.3417C19.274 19.4912 18.9311 19.5467 18.5943 19.501L16.5714 19.1924L14.0686 20.6324L13.3315 22.5352C13.2071 22.8574 12.9884 23.1346 12.7039 23.3303C12.4195 23.5261 12.0825 23.6314 11.7372 23.6324H10.2972C9.95185 23.6314 9.61489 23.5261 9.33041 23.3303C9.04594 23.1346 8.82721 22.8574 8.70289 22.5352L7.96575 20.6324L5.46289 19.1924L3.44004 19.501C3.10321 19.5467 2.76039 19.4912 2.45514 19.3417C2.14992 19.192 1.89603 18.9551 1.72575 18.661L1.04004 17.461C0.864321 17.1621 0.783373 16.8169 0.807853 16.4711C0.832333 16.1253 0.96111 15.795 1.17718 15.5238L2.42861 13.9295V11.0495L1.14289 9.45525C0.926824 9.1841 0.798047 8.85381 0.773567 8.50797C0.749087 8.16213 0.830036 7.81699 1.00575 7.51811L1.69146 6.31811C1.86174 6.0239 2.11563 5.78697 2.42086 5.6374C2.7261 5.48783 3.06893 5.43239 3.40575 5.47811L5.42861 5.78668L7.96575 4.34668ZM7.57146 12.4895C7.57146 13.1676 7.77255 13.8305 8.14928 14.3943C8.52603 14.9582 9.06149 15.3976 9.68797 15.6571C10.3145 15.9166 11.0038 15.9845 11.6689 15.8522C12.334 15.7199 12.9449 15.3934 13.4244 14.9139C13.9039 14.4344 14.2304 13.8235 14.3627 13.1584C14.495 12.4933 14.4271 11.804 14.1676 11.1775C13.9081 10.551 13.4687 10.0155 12.9048 9.63878C12.341 9.26205 11.6781 9.06096 11 9.06096C10.0907 9.06096 9.21865 9.42218 8.57568 10.0652C7.9327 10.7082 7.57146 11.5802 7.57146 12.4895Z" stroke="#2A2A2C" stroke-width="1.5" stroke-linecap="round" stroke-linejoin="round"/>
</g>
</svg>
