<svg width="24" height="25" viewBox="0 0 24 25" fill="none" xmlns="http://www.w3.org/2000/svg">
<g id="customer-support-1--customer-headset-help-microphone-phone-support">
<path id="Vector" d="M5.14282 12.4896V7.98099C5.15621 7.09476 5.34434 6.21989 5.69643 5.40648C6.04851 4.59309 6.55766 3.85716 7.19465 3.24086C7.83165 2.62457 8.58399 2.14002 9.40858 1.81499C10.2332 1.48995 11.1138 1.33082 12 1.34671C12.8861 1.33082 13.7668 1.48995 14.5913 1.81499C15.4159 2.14002 16.1683 2.62457 16.8053 3.24086C17.4423 3.85716 17.9515 4.59309 18.3036 5.40648C18.6555 6.21989 18.8437 7.09476 18.8571 7.98099V12.4896" stroke="#2A2A2C" stroke-width="1.5" stroke-linecap="round" stroke-linejoin="round"/>
<path id="Vector_2" d="M2.57146 9.9181H4.28575C4.51308 9.9181 4.7311 10.0084 4.89183 10.1692C5.05258 10.3299 5.14289 10.5479 5.14289 10.7752V15.9181C5.14289 16.1454 5.05258 16.3635 4.89183 16.5242C4.7311 16.6849 4.51308 16.7752 4.28575 16.7752H2.57146C2.1168 16.7752 1.68077 16.5946 1.35928 16.2731C1.03779 15.9516 0.857178 15.5156 0.857178 15.061V11.6324C0.857178 11.1777 1.03779 10.7417 1.35928 10.4202C1.68077 10.0987 2.1168 9.9181 2.57146 9.9181Z" stroke="#2A2A2C" stroke-width="1.5" stroke-linecap="round" stroke-linejoin="round"/>
<path id="Vector_3" d="M21.4286 16.7752H19.7143C19.487 16.7752 19.2689 16.6849 19.1081 16.5242C18.9475 16.3635 18.8572 16.1454 18.8572 15.9181V10.7752C18.8572 10.5479 18.9475 10.3299 19.1081 10.1692C19.2689 10.0084 19.487 9.9181 19.7143 9.9181H21.4286C21.8832 9.9181 22.3193 10.0987 22.6408 10.4202C22.9622 10.7417 23.1429 11.1777 23.1429 11.6324V15.061C23.1429 15.5156 22.9622 15.9516 22.6408 16.2731C22.3193 16.5946 21.8832 16.7752 21.4286 16.7752Z" stroke="#2A2A2C" stroke-width="1.5" stroke-linecap="round" stroke-linejoin="round"/>
<path id="Vector_4" d="M15.4287 21.4895C16.338 21.4895 17.21 21.1283 17.8531 20.4853C18.4961 19.8423 18.8573 18.9702 18.8573 18.061V14.2038" stroke="#2A2A2C" stroke-width="1.5" stroke-linecap="round" stroke-linejoin="round"/>
<path id="Vector_5" d="M15.4287 21.4895C15.4287 22.0578 15.2029 22.603 14.801 23.0048C14.3992 23.4066 13.8541 23.6324 13.2858 23.6324H10.7144C10.1461 23.6324 9.60103 23.4066 9.19917 23.0048C8.7973 22.603 8.57153 22.0578 8.57153 21.4895C8.57153 20.9212 8.7973 20.3761 9.19917 19.9743C9.60103 19.5724 10.1461 19.3467 10.7144 19.3467H13.2858C13.8541 19.3467 14.3992 19.5724 14.801 19.9743C15.2029 20.3761 15.4287 20.9212 15.4287 21.4895Z" stroke="#2A2A2C" stroke-width="1.5" stroke-linecap="round" stroke-linejoin="round"/>
</g>
</svg>
